<svg width="25" height="25" viewBox="0 0 25 25" fill="none" xmlns="http://www.w3.org/2000/svg">
<path d="M19.0068 16.538C18.1901 15.7316 17.1704 15.7316 16.3588 16.538C15.7397 17.1519 15.1207 17.7657 14.512 18.39C14.3455 18.5617 14.205 18.5981 14.0021 18.4836C13.6016 18.2651 13.175 18.0883 12.79 17.849C10.9952 16.7201 9.49167 15.2686 8.15986 13.6351C7.49916 12.8236 6.91129 11.9548 6.5003 10.9768C6.41706 10.7791 6.43267 10.649 6.59394 10.4878C7.21302 9.8895 7.8165 9.27564 8.42518 8.66177C9.27317 7.8086 9.27317 6.80976 8.41998 5.95139C7.93616 5.46238 7.45233 4.98377 6.96851 4.49476C6.46908 3.99534 5.97486 3.49072 5.47022 2.99651C4.65345 2.20056 3.63378 2.20056 2.82221 3.00171C2.19792 3.61558 1.59964 4.24505 0.964953 4.84851C0.377083 5.40515 0.0805467 6.08665 0.018118 6.8826C-0.0807275 8.17796 0.236618 9.40049 0.684024 10.5918C1.59964 13.0577 2.99389 15.2478 4.68466 17.2559C6.96851 19.9715 9.69457 22.12 12.8836 23.6703C14.3195 24.3674 15.8074 24.9032 17.4253 24.9917C18.5386 25.0541 19.5063 24.7732 20.2814 23.9044C20.8121 23.3113 21.4103 22.7703 21.9722 22.2033C22.8046 21.3605 22.8098 20.3408 21.9826 19.5085C20.9942 18.5149 20.0005 17.5264 19.0068 16.538Z" fill="white"/>
<path d="M18.0134 12.3918L19.9331 12.0641C19.6314 10.3005 18.799 8.70339 17.5348 7.43404C16.1978 6.09706 14.507 5.25429 12.6445 4.99418L12.374 6.92422C13.8151 7.12711 15.1261 7.77739 16.1614 8.81264C17.1394 9.79066 17.7793 11.0288 18.0134 12.3918Z" fill="white"/>
<path d="M21.0152 4.04736C18.7989 1.8312 15.9949 0.431788 12.8994 0L12.6289 1.93004C15.3029 2.3046 17.7273 3.51673 19.6417 5.42596C21.4574 7.24155 22.6487 9.53575 23.0805 12.0588L25.0002 11.7311C24.4956 8.80743 23.1169 6.15428 21.0152 4.04736Z" fill="white"/>
</svg>
