<svg width="25" height="25" viewBox="0 0 25 25" fill="none" xmlns="http://www.w3.org/2000/svg">
<path d="M24.5536 3.125H0.446436C0.199853 3.125 0 3.32485 0 3.57144V21.4286C0 21.6751 0.199853 21.875 0.446436 21.875H24.5536C24.8001 21.875 25 21.6751 25 21.4286V3.57144C25 3.32485 24.8001 3.125 24.5536 3.125ZM7.91562 14.1438L1.66562 20.8402C1.55791 20.961 1.39316 21.0141 1.23516 20.9789C1.07715 20.9436 0.950586 20.8255 0.904443 20.6703C0.858301 20.5151 0.899854 20.3471 1.01294 20.2312L7.26294 13.5348C7.37065 13.414 7.5354 13.3609 7.69341 13.3961C7.85142 13.4314 7.97798 13.5495 8.02412 13.7047C8.07026 13.8599 8.02871 14.0279 7.91562 14.1438ZM23.9652 20.8621C23.7849 21.0301 23.5025 21.0204 23.3344 20.8402L17.0844 14.1438C16.9713 14.0279 16.9297 13.8599 16.9759 13.7047C17.022 13.5495 17.1485 13.4314 17.3066 13.3961C17.4646 13.3609 17.6293 13.4139 17.7371 13.5348L23.9871 20.2312C24.1551 20.4115 24.1454 20.6939 23.9652 20.8621ZM23.9478 4.80625L13.6487 13.4576C13.3272 13.7284 12.9204 13.8769 12.5 13.8768C12.0796 13.8769 11.6728 13.7284 11.3513 13.4576L1.05225 4.80625C0.930078 4.70371 0.871875 4.54375 0.899609 4.38667C0.927344 4.22959 1.03677 4.09922 1.18667 4.04473C1.33657 3.99019 1.5042 4.01978 1.62637 4.12231L11.9255 12.7741C12.2576 13.0534 12.7424 13.0534 13.0746 12.7741L23.3737 4.12231C23.5625 3.96377 23.8441 3.98838 24.0027 4.17725C24.1612 4.36611 24.1366 4.64771 23.9478 4.80625Z" fill="white"/>
</svg>
