<svg width="25" height="25" viewBox="0 0 25 25" fill="none" xmlns="http://www.w3.org/2000/svg">
<g clip-path="url(#clip0)">
<path d="M18.6918 2.56451C17.0381 0.910843 14.8393 0 12.5008 0C10.1619 0 7.9635 0.910843 6.30983 2.56451C3.24949 5.6244 2.86918 11.3817 5.48619 14.8698L12.5008 25L19.505 14.8839C22.1325 11.3816 21.7522 5.6244 18.6918 2.56451ZM12.5816 11.8706C10.8198 11.8706 9.3857 10.4366 9.3857 8.67469C9.3857 6.91281 10.8198 5.47875 12.5816 5.47875C14.3435 5.47875 15.7776 6.91281 15.7776 8.67469C15.7776 10.4366 14.3435 11.8706 12.5816 11.8706Z" fill="white"/>
</g>
<defs>
<clipPath id="clip0">
<rect width="25" height="25" fill="white"/>
</clipPath>
</defs>
</svg>
